<mxfile host="app.diagrams.net" modified="2020-09-23T13:59:20.243Z" agent="5.0 (Windows NT 6.3; Win64; x64) AppleWebKit/537.36 (KHTML, like Gecko) Chrome/84.0.4147.135 Safari/537.36 OPR/70.0.3728.178" etag="TpJMNcztrK7NOjZ3_F6Y" version="13.7.5" type="github">
  <diagram id="a3Nzvsb-ldIFVv8W4qNW" name="les1_task1">
    <mxGraphModel dx="998" dy="551" grid="1" gridSize="10" guides="1" tooltips="1" connect="1" arrows="1" fold="1" page="1" pageScale="1" pageWidth="827" pageHeight="1169" math="0" shadow="0">
      <root>
        <mxCell id="0" />
        <mxCell id="1" parent="0" />
        <mxCell id="r_34LLYnnlwJf0EoLh6A-1" style="edgeStyle=orthogonalEdgeStyle;rounded=0;orthogonalLoop=1;jettySize=auto;html=1;exitX=0.5;exitY=1;exitDx=0;exitDy=0;entryX=0.5;entryY=0;entryDx=0;entryDy=0;" edge="1" parent="1" source="kStDeDPKtdsZhYMW48w8-1" target="kStDeDPKtdsZhYMW48w8-5">
          <mxGeometry relative="1" as="geometry" />
        </mxCell>
        <mxCell id="kStDeDPKtdsZhYMW48w8-1" value="Начало" style="ellipse;whiteSpace=wrap;html=1;" parent="1" vertex="1">
          <mxGeometry x="260" y="60" width="120" height="40" as="geometry" />
        </mxCell>
        <mxCell id="kStDeDPKtdsZhYMW48w8-14" style="edgeStyle=orthogonalEdgeStyle;rounded=0;orthogonalLoop=1;jettySize=auto;html=1;exitX=0.5;exitY=1;exitDx=0;exitDy=0;entryX=0.5;entryY=0;entryDx=0;entryDy=0;" parent="1" source="kStDeDPKtdsZhYMW48w8-5" target="kStDeDPKtdsZhYMW48w8-6" edge="1">
          <mxGeometry relative="1" as="geometry" />
        </mxCell>
        <mxCell id="kStDeDPKtdsZhYMW48w8-5" value="выполнение операций 5|6, 5&amp;amp;6, 5^6" style="rounded=0;whiteSpace=wrap;html=1;" parent="1" vertex="1">
          <mxGeometry x="240" y="160" width="160" height="50" as="geometry" />
        </mxCell>
        <mxCell id="kStDeDPKtdsZhYMW48w8-15" style="edgeStyle=orthogonalEdgeStyle;rounded=0;orthogonalLoop=1;jettySize=auto;html=1;exitX=0.5;exitY=1;exitDx=0;exitDy=0;entryX=0.5;entryY=0;entryDx=0;entryDy=0;" parent="1" source="kStDeDPKtdsZhYMW48w8-6" target="kStDeDPKtdsZhYMW48w8-7" edge="1">
          <mxGeometry relative="1" as="geometry" />
        </mxCell>
        <mxCell id="kStDeDPKtdsZhYMW48w8-6" value="выполнение операций 5&amp;gt;&amp;gt;2, 5&amp;lt;&amp;lt;2" style="rounded=0;whiteSpace=wrap;html=1;" parent="1" vertex="1">
          <mxGeometry x="240" y="250" width="160" height="50" as="geometry" />
        </mxCell>
        <mxCell id="kStDeDPKtdsZhYMW48w8-7" value="Конец" style="ellipse;whiteSpace=wrap;html=1;" parent="1" vertex="1">
          <mxGeometry x="260" y="350" width="120" height="40" as="geometry" />
        </mxCell>
      </root>
    </mxGraphModel>
  </diagram>
</mxfile>
